# xmcd
#
# Track frame offsets: 
#        150
#        21229
#        42177
#        63802
#        90808
#        117262
#        138147
#        158972
#        182662
#        203700
#        230717
#
# Disc length: 3580 seconds
#
# Revision: 0
# Processed by: cddbd v1.5.1PL0 Copyright (c) Steve Scherf et al.
# Submitted via: ExactAudioCopy v0.90b4
#
DISCID=850dfa0b
DTITLE=Studebaker John - Between Life And Death
DYEAR=2004
DGENRE=Blues
TTITLE0=Between Life And Death
TTITLE1=This Road
TTITLE2=I Deceive Myself
TTITLE3=When I look Into Your Eyes
TTITLE4=Crazy For Your Love
TTITLE5=Hard Place and The Ground
TTITLE6=If I Had A Nickel
TTITLE7=I Don't Know
TTITLE8=Can't Forget About You
TTITLE9=That's Why I'm Living
TTITLE10=Cold Chills
EXTD=
EXTT0=
EXTT1=
EXTT2=
EXTT3=
EXTT4=
EXTT5=
EXTT6=
EXTT7=
EXTT8=
EXTT9=
EXTT10=
PLAYORDER=
